# xmcd
#
# Track frame offsets: 
#        150
#        18952
#        39242
#        61200
#        76856
#        100933
#        116953
#        138593
#        158981
#        185682
#
# Disc length: 2802 seconds
#
# Revision: 0
# Processed by: cddbd v1.5.2PL0 Copyright (c) Steve Scherf et al.
# Submitted via: ExactAudioCopy v0.99pb5
#
DISCID=7f0af00a
DTITLE=Daisy Chapman - The Green Eyed
DYEAR=2009
DGENRE=Blues
TTITLE0=Madam Jeneva
TTITLE1=Stay With Me
TTITLE2=Oh Daddy
TTITLE3=Ring Of Fire
TTITLE4=The Piano
TTITLE5=Just Give Up, Jessica
TTITLE6=Marry Mary
TTITLE7=Umbrella
TTITLE8=Does She Know What I Know?
TTITLE9=The Green Eyed
EXTD=
EXTT0=
EXTT1=
EXTT2=
EXTT3=
EXTT4=
EXTT5=
EXTT6=
EXTT7=
EXTT8=
EXTT9=
PLAYORDER=
